<?xml version="1.0" encoding="utf-8"?>
<!-- Generator: Adobe Illustrator 16.0.0, SVG Export Plug-In . SVG Version: 6.00 Build 0)  -->
<!DOCTYPE svg PUBLIC "-//W3C//DTD SVG 1.1//EN" "http://www.w3.org/Graphics/SVG/1.1/DTD/svg11.dtd">
<svg version="1.1" id="Layer_1" xmlns="http://www.w3.org/2000/svg" xmlns:xlink="http://www.w3.org/1999/xlink" x="0px" y="0px"
	 width="93.272px" height="146px" viewBox="0 0 93.272 146" enable-background="new 0 0 93.272 146" xml:space="preserve">
<path fill="#2D69AE" d="M87.361,92.591H84.55c-1.839,0-3.498,0.504-5.084,1.405l-6.165,3.534v5.805l7.57-3.966v18.098h6.49V92.591z
	 M58.536,104.488c-2.126,0-3.352-1.514-3.352-3.929c0-1.948,1.082-3.714,3.281-3.714c2.054,0,3.315,1.514,3.315,3.857
	C61.781,103.118,60.304,104.488,58.536,104.488 M58.393,92.087c-5.19,0-9.986,3.136-9.986,9.265c0,4.255,2.452,7.896,8.112,7.896
	c1.73,0,3.029-0.252,4.361-1.297l1.154-2.236c-0.18,5.192-1.479,7.499-3.894,7.499c-1.657,0-2.559-0.722-2.919-2.452l-0.073-0.36
	h-6.49l0.037,0.36c0.433,4.435,3.389,7.21,9.085,7.21c6.634,0,10.78-4.83,10.78-13.41C68.561,95.944,65.171,92.087,58.393,92.087
	 M34.582,104.488c-2.127,0-3.354-1.514-3.354-3.929c0-1.948,1.082-3.714,3.28-3.714c2.056,0,3.317,1.514,3.317,3.857
	C37.826,103.118,36.349,104.488,34.582,104.488 M34.438,92.087c-5.192,0-9.986,3.136-9.986,9.265c0,4.255,2.451,7.896,8.112,7.896
	c1.73,0,3.028-0.252,4.362-1.297l1.153-2.236c-0.18,5.192-1.478,7.499-3.893,7.499c-1.659,0-2.561-0.722-2.921-2.452l-0.072-0.36
	h-6.489l0.036,0.36c0.433,4.435,3.389,7.21,9.085,7.21c6.634,0,10.779-4.83,10.779-13.41C44.604,95.944,41.215,92.087,34.438,92.087
	 M18.312,92.591H15.5c-1.838,0-3.497,0.504-5.083,1.405L4.251,97.53v5.805l7.571-3.966v18.098h6.489V92.591z"/>
<path fill="#2D69AE" d="M90.473,73.916c-0.222-1.473-1.253-2.298-2.996-2.298c-0.777,0-1.38,0.175-1.904,0.492l-0.762,1.046V71.84
	h-2.854v8.469h2.854v-3.998c0-1.919,0.618-2.76,1.491-2.76c0.857,0,1.302,0.476,1.366,1.286c0.031,0.428,0.031,0.887,0.031,1.158
	v4.315h2.853v-4.791C90.552,74.837,90.538,74.344,90.473,73.916 M80.067,71.84h-2.854v8.469h2.854V71.84z M78.641,68.397
	c-0.887,0-1.475,0.54-1.475,1.397c0,0.855,0.588,1.395,1.475,1.395c0.888,0,1.475-0.54,1.475-1.395
	C80.115,68.937,79.528,68.397,78.641,68.397 M67.727,78.597c-1,0-1.793-0.889-1.793-2.474c0-1.731,0.763-2.572,1.873-2.572
	c0.856,0,1.729,0.572,1.729,2.27v0.365C69.536,77.963,68.774,78.597,67.727,78.597 M72.391,68.652h-2.854v4.281L68.98,72.03
	c-0.429-0.253-1.254-0.413-1.952-0.413c-2.173,0-4.011,1.632-4.011,4.647c0,2.507,1.427,4.266,3.727,4.266
	c0.855,0,1.681-0.173,2.157-0.522l0.635-0.935v1.236h2.854V68.652z M57.609,73.551c0.762,0,1.254,0.492,1.413,1.493H56.15
	C56.341,73.996,56.864,73.551,57.609,73.551 M62.004,75.964c0-2.19-1.429-4.346-4.251-4.346c-2.821,0-4.518,2.014-4.518,4.49
	c0,2.981,1.933,4.423,4.358,4.423c2.174,0,3.759-1.077,4.252-2.996h-2.808c-0.111,0.649-0.604,1.062-1.411,1.062
	c-0.811,0-1.429-0.396-1.572-1.81h5.901C61.988,76.501,62.004,76.217,62.004,75.964 M47.131,78.597c-1,0-1.793-0.889-1.793-2.474
	c0-1.731,0.762-2.572,1.872-2.572c0.857,0,1.73,0.572,1.73,2.27v0.365C48.94,77.963,48.18,78.597,47.131,78.597 M51.794,68.652
	H48.94v4.281l-0.555-0.903c-0.429-0.253-1.255-0.413-1.953-0.413c-2.174,0-4.012,1.632-4.012,4.647c0,2.507,1.426,4.266,3.727,4.266
	c0.856,0,1.684-0.173,2.159-0.522l0.634-0.935v1.236h2.854V68.652z M40.948,73.916c-0.222-1.473-1.252-2.298-2.997-2.298
	c-0.777,0-1.38,0.175-1.904,0.492l-0.762,1.046V71.84h-2.854v8.469h2.854v-3.998c0-1.919,0.619-2.76,1.492-2.76
	c0.857,0,1.301,0.476,1.365,1.286c0.031,0.428,0.031,0.887,0.031,1.158v4.315h2.854v-4.791
	C41.028,74.837,41.012,74.344,40.948,73.916 M30.523,71.84H27.67v4.791c0,1.125-0.54,1.966-1.445,1.966
	c-0.904,0-1.285-0.476-1.38-1.284c-0.048-0.428-0.063-0.889-0.063-1.158V71.84h-2.854v4.949c0,0.682,0.015,1.174,0.079,1.603
	c0.19,1.158,1.251,2.139,2.997,2.139c0.777,0,1.38-0.173,1.905-0.492l0.761-1.156v1.427h2.854V71.84z M16.041,78.597
	c-1.016,0-1.634-0.841-1.634-2.522c0-1.699,0.618-2.524,1.634-2.524c1.017,0,1.635,0.825,1.635,2.524
	C17.676,77.756,17.058,78.597,16.041,78.597 M16.041,71.618c-2.776,0-4.552,1.728-4.552,4.458c0,2.712,1.776,4.456,4.552,4.456
	c2.777,0,4.552-1.744,4.552-4.456C20.593,73.346,18.818,71.618,16.041,71.618 M5.304,71.585h5.377v-2.219H2.45V80.31h2.854v-4.378
	h4.901v-2.219H5.304V71.585z"/>
<path fill="#2D69AE" d="M92.622,133.978c-0.539,0-1.205,0.238-1.666,0.746l-0.603,1.19V134.2h-2.854v8.47h2.854v-3.11
	c0-2.552,0.777-3.345,2.919-3.202v-2.332C93.065,133.994,92.893,133.978,92.622,133.978 M81.542,140.957
	c-0.572,0-0.969-0.284-0.969-0.794c0-0.841,0.921-1.174,2.208-1.079v0.557C82.781,140.529,82.113,140.957,81.542,140.957
	 M83.001,142.67h2.791c-0.127-0.938-0.157-1.506-0.157-2.141v-2.381c0-0.522-0.018-1.014-0.049-1.443
	c-0.126-1.539-1.045-2.728-3.726-2.728c-2.143,0-3.901,1.125-3.918,3.109l2.695-0.016c0.047-0.73,0.429-1.159,1.096-1.159
	c0.618,0,0.969,0.381,1.017,0.809c0.031,0.271,0.031,0.445,0.031,0.62v0.126H82.24c-2.871,0-4.582,1.11-4.582,2.918
	c0,1.634,1.315,2.507,2.709,2.507c0.779,0,1.493-0.191,2.096-0.571l0.35-0.888L83.001,142.67z M76.121,136.118
	c-0.189-1.157-1.142-2.141-2.837-2.141c-0.777,0-1.302,0.175-1.825,0.493l-0.889,1.156c-0.365-0.937-1.27-1.649-2.711-1.649
	c-0.777,0-1.303,0.175-1.825,0.493l-0.684,1.093V134.2h-2.854v8.47h2.854v-4.473c0-1.445,0.365-2.285,1.286-2.285
	c0.746,0,1.127,0.475,1.223,1.285c0.048,0.428,0.062,0.889,0.062,1.157v4.315h2.854v-4.473c0-1.445,0.365-2.285,1.286-2.285
	c0.746,0,1.126,0.475,1.223,1.285c0.048,0.428,0.063,0.889,0.063,1.157v4.315h2.854v-4.949
	C76.202,137.038,76.185,136.546,76.121,136.118 M60.57,136.277c-0.22-1.476-1.251-2.3-2.994-2.3c-0.78,0-1.383,0.175-1.905,0.493
	l-0.764,1.045V134.2h-2.852v8.47h2.852v-3.999c0-1.919,0.621-2.759,1.493-2.759c0.857,0,1.303,0.475,1.364,1.285
	c0.032,0.428,0.032,0.889,0.032,1.157v4.315h2.852v-4.791C60.648,137.197,60.635,136.705,60.57,136.277 M46.098,140.957
	c-0.572,0-0.969-0.284-0.969-0.794c0-0.841,0.921-1.174,2.206-1.079v0.557C47.335,140.529,46.669,140.957,46.098,140.957
	 M47.558,142.67h2.79c-0.127-0.938-0.159-1.506-0.159-2.141v-2.381c0-0.522-0.015-1.014-0.047-1.443
	c-0.128-1.539-1.046-2.728-3.727-2.728c-2.144,0-3.902,1.125-3.918,3.109l2.695-0.016c0.047-0.73,0.428-1.159,1.096-1.159
	c0.619,0,0.968,0.381,1.015,0.809c0.032,0.271,0.032,0.445,0.032,0.62v0.126h-0.539c-2.871,0-4.584,1.11-4.584,2.918
	c0,1.634,1.315,2.507,2.711,2.507c0.777,0,1.492-0.191,2.095-0.571l0.349-0.888L47.558,142.67z M41.983,134.2h-3.125l-1.728,6.202
	l-1.745-6.202h-3.172l3.506,8.851l-0.111,0.238c-0.27,0.603-0.729,0.825-1.396,0.825c-0.285,0-0.539,0-0.777-0.032v1.839
	c0.413,0.063,0.746,0.079,1.206,0.079c2.015,0,2.933-0.649,3.996-3.329L41.983,134.2z M31.041,131.726h-4.345l-1.856,8.17
	l-1.857-8.17h-4.455v10.944h2.853v-4.6c0-0.952,0-2.365-0.032-3.475c0.175,1.109,0.492,2.522,0.746,3.473l1.223,4.602h2.934
	l1.207-4.602c0.253-0.967,0.572-2.363,0.762-3.473c-0.032,1.109-0.032,2.522-0.032,3.473v4.602h2.853V131.726z M13.307,136.277
	c-0.222-1.476-1.252-2.3-2.995-2.3c-0.779,0-1.382,0.175-1.905,0.493l-0.763,1.045V134.2H4.791v8.47h2.853v-3.999
	c0-1.919,0.62-2.759,1.493-2.759c0.856,0,1.302,0.475,1.365,1.285c0.032,0.428,0.032,0.889,0.032,1.157v4.315h2.853v-4.791
	C13.386,137.197,13.37,136.705,13.307,136.277 M2.9,134.2H0.046v8.47H2.9V134.2z M1.475,130.758c-0.889,0-1.474,0.54-1.474,1.395
	c0,0.856,0.585,1.396,1.474,1.396c0.888,0,1.474-0.539,1.474-1.396C2.948,131.298,2.362,130.758,1.475,130.758"/>
<path fill="none" stroke="#2D69AE" stroke-width="1.8" stroke-linecap="round" stroke-linejoin="round" stroke-miterlimit="10" d="
	M55.241,18.897c0,5.26-4.265,9.526-9.526,9.526c-5.261,0-9.525-4.266-9.525-9.526c0-5.261,4.265-9.527,9.525-9.527
	C50.977,9.371,55.241,13.636,55.241,18.897z M45.715,52.378c0,0-16.178-15.269-16.178-33.265c0-8.936,4.216-17.815,16.178-17.815
	c11.963,0,16.179,8.879,16.179,17.815C61.894,37.109,45.715,52.378,45.715,52.378z"/>
<rect fill="none" width="93.272" height="146"/>
</svg>
