<?xml version="1.0" encoding="utf-8"?>
<!-- Generator: Adobe Illustrator 16.0.0, SVG Export Plug-In . SVG Version: 6.00 Build 0)  -->
<!DOCTYPE svg PUBLIC "-//W3C//DTD SVG 1.1//EN" "http://www.w3.org/Graphics/SVG/1.1/DTD/svg11.dtd">
<svg version="1.1" id="Layer_1" xmlns="http://www.w3.org/2000/svg" xmlns:xlink="http://www.w3.org/1999/xlink" x="0px" y="0px"
	 width="81.282px" height="143.706px" viewBox="0 0 81.282 143.706" style="enable-background:new 0 0 81.282 143.706;"
	 xml:space="preserve">
<style type="text/css">
<![CDATA[
	.st0{fill:#2D69AE;}
	.st1{fill:none;stroke:#2D69AE;stroke-width:1.8;stroke-miterlimit:10;}
]]>
</style>
<g>
	<path class="st0" d="M36.015,98.74c-2.335,0-3.771-1.722-3.771-4.386c0-2.747,1.681-4.304,3.688-4.304
		c2.419,0,3.812,1.721,3.812,4.468C39.744,96.73,38.515,98.74,36.015,98.74 M38.228,84.641c-1.968,0-3.443,0.287-4.959,1.476
		l-1.311,2.542c0.203-5.902,1.679-8.525,4.426-8.525c1.721,0,2.746,0.819,3.319,2.787l0.081,0.41h7.378l-0.04-0.41
		c-0.656-5.042-4.018-8.197-10.328-8.197c-7.378,0-12.256,5.491-12.256,15.246c0,9.795,3.854,14.18,11.559,14.18
		c5.902,0,11.352-3.566,11.352-10.533C47.448,88.78,44.662,84.641,38.228,84.641"/>
	<path class="st0" d="M70.812,135.262c-2.134,0-3.516,0.991-3.516,2.583c0,1.368,0.915,2.075,2.448,2.436
		c1.427,0.331,1.939,0.616,1.939,1.128c0,0.42-0.375,0.616-0.858,0.616c-0.57,0-1.051-0.405-1.201-1.022h-2.659
		c0.211,1.803,1.697,2.703,3.877,2.703c1.937,0,3.543-0.795,3.543-2.508c0-1.548-1.035-2.179-2.49-2.539
		c-1.534-0.377-1.896-0.678-1.896-1.129c0-0.345,0.271-0.587,0.646-0.587c0.481,0.002,0.752,0.316,0.874,0.873h2.657
		C73.966,136.359,72.81,135.262,70.812,135.262 M62.578,135.262c-2.134,0-3.514,0.991-3.514,2.583c0,1.368,0.915,2.075,2.446,2.436
		c1.431,0.331,1.94,0.616,1.94,1.128c0,0.42-0.375,0.616-0.856,0.616c-0.571,0-1.053-0.405-1.203-1.022h-2.658
		c0.211,1.803,1.697,2.703,3.876,2.703c1.938,0,3.546-0.795,3.546-2.508c0-1.548-1.037-2.179-2.494-2.539
		c-1.533-0.377-1.894-0.678-1.894-1.129c0-0.345,0.27-0.587,0.646-0.587c0.482,0.002,0.752,0.316,0.873,0.873h2.66
		C65.735,136.359,64.577,135.262,62.578,135.262 M53.766,137.094c0.722,0,1.188,0.467,1.338,1.414h-2.72
		C52.565,137.514,53.06,137.094,53.766,137.094 M57.928,139.379c0-2.074-1.352-4.117-4.026-4.117c-2.674,0-4.279,1.906-4.279,4.253
		c0,2.824,1.832,4.19,4.129,4.19c2.059,0,3.561-1.021,4.027-2.839h-2.66c-0.104,0.616-0.57,1.007-1.337,1.007
		s-1.353-0.376-1.488-1.714h5.59C57.913,139.889,57.928,139.62,57.928,139.379 M48.251,137.44c-0.21-1.396-1.186-2.178-2.837-2.178
		c-0.739,0-1.31,0.165-1.805,0.466l-0.724,0.989v-1.244h-2.701v8.023h2.701v-3.788c0-1.818,0.589-2.614,1.414-2.614
		c0.812,0,1.234,0.45,1.295,1.217c0.03,0.406,0.03,0.842,0.03,1.098v4.088h2.701v-4.539
		C48.326,138.311,48.312,137.845,48.251,137.44 M38.395,135.473H35.69v8.023h2.704V135.473z M37.042,132.211
		c-0.841,0-1.396,0.511-1.396,1.323c0,0.81,0.555,1.32,1.396,1.32c0.843,0,1.396-0.511,1.396-1.32
		C38.438,132.722,37.885,132.211,37.042,132.211 M30.822,135.262c-2.135,0-3.517,0.991-3.517,2.583c0,1.368,0.915,2.075,2.446,2.436
		c1.431,0.331,1.942,0.616,1.942,1.128c0,0.42-0.377,0.616-0.859,0.616c-0.57,0-1.052-0.405-1.2-1.022h-2.66
		c0.211,1.803,1.697,2.703,3.877,2.703c1.938,0,3.544-0.795,3.544-2.508c0-1.548-1.035-2.179-2.49-2.539
		c-1.534-0.377-1.896-0.678-1.896-1.129c0-0.345,0.271-0.587,0.648-0.587c0.479,0.002,0.752,0.316,0.872,0.873h2.657
		C33.976,136.359,32.82,135.262,30.822,135.262 M25.707,135.473h-2.701v4.537c0,1.067-0.513,1.863-1.369,1.863
		c-0.857,0-1.218-0.45-1.309-1.216c-0.045-0.406-0.06-0.842-0.06-1.099v-4.086h-2.702v4.688c0,0.646,0.014,1.113,0.075,1.519
		c0.179,1.097,1.185,2.026,2.836,2.026c0.739,0,1.311-0.165,1.807-0.466l0.722-1.095v1.352h2.701V135.473z M12.304,141.377
		c-0.196,0.017-0.436,0.017-0.676,0.017h-1.46v-2.226h1.385c0.24,0,0.48,0,0.675,0.015c0.558,0.045,1.053,0.405,1.053,1.098
		C13.28,140.958,12.785,141.348,12.304,141.377 M10.168,135.23h1.22c0.24,0,0.48,0.017,0.676,0.046
		c0.512,0.074,0.826,0.36,0.826,0.948c0,0.616-0.346,0.871-0.841,0.946c-0.196,0.03-0.421,0.045-0.661,0.045h-1.22V135.23z
		 M14.196,137.863c1.021-0.362,1.518-1.082,1.518-2.031c0-1.351-0.961-2.433-2.674-2.644c-0.527-0.061-0.767-0.061-1.322-0.061
		H7.465v10.369h4.134c0.66,0,1.006,0,1.531-0.061c1.397-0.165,2.975-1.126,2.975-3.064
		C16.104,139.107,15.503,138.237,14.196,137.863"/>
	<path class="st0" d="M76.864,124.115c-0.947,0-1.699-0.841-1.699-2.346c0-1.638,0.723-2.433,1.773-2.433
		c0.813,0,1.64,0.54,1.64,2.147v0.346C78.578,123.514,77.856,124.115,76.864,124.115 M81.282,114.694h-2.704v4.056l-0.525-0.855
		c-0.405-0.24-1.188-0.391-1.851-0.391c-2.059,0-3.8,1.546-3.8,4.402c0,2.374,1.351,4.042,3.53,4.042
		c0.811,0,1.593-0.165,2.044-0.496l0.602-0.886v1.171h2.704V114.694z M67.28,119.336c0.723,0,1.187,0.465,1.338,1.412h-2.721
		C66.079,119.756,66.574,119.336,67.28,119.336 M71.443,121.62c0-2.074-1.353-4.116-4.027-4.116c-2.674,0-4.281,1.907-4.281,4.251
		c0,2.827,1.833,4.193,4.132,4.193c2.057,0,3.561-1.021,4.026-2.84h-2.66c-0.104,0.617-0.571,1.007-1.337,1.007
		s-1.353-0.375-1.487-1.714h5.589C71.429,122.131,71.443,121.86,71.443,121.62 M61.645,117.774h-5.35v-0.061
		c0-0.194,0-0.391,0.015-0.603c0.074-0.706,0.602-0.946,2.633-0.826v-1.757c-0.422-0.074-0.738-0.12-1.354-0.12
		c-2.931,0-3.863,0.93-3.98,2.434c-0.017,0.27-0.017,0.633-0.017,0.872v0.061h-0.856v1.683h0.856v6.28h2.703v-6.28h2.647v6.28h2.702
		V117.774z M51.335,117.713h-2.704v8.023h2.704V117.713z M49.983,114.454c-0.842,0-1.398,0.511-1.398,1.32
		c0,0.812,0.557,1.322,1.398,1.322c0.839,0,1.396-0.511,1.396-1.322C51.379,114.964,50.822,114.454,49.983,114.454 M43.763,117.503
		c-2.135,0-3.517,0.991-3.517,2.584c0,1.367,0.917,2.073,2.446,2.434c1.431,0.332,1.941,0.617,1.941,1.128
		c0,0.422-0.376,0.616-0.857,0.616c-0.571,0-1.053-0.405-1.203-1.021h-2.658c0.211,1.803,1.697,2.704,3.877,2.704
		c1.938,0,3.545-0.797,3.545-2.508c0-1.551-1.035-2.182-2.494-2.542c-1.533-0.376-1.894-0.676-1.894-1.127
		c0-0.346,0.271-0.586,0.647-0.586c0.48,0,0.752,0.315,0.871,0.871h2.659C46.917,118.6,45.761,117.503,43.763,117.503
		 M38.765,117.503c-0.509,0-1.142,0.226-1.576,0.707l-0.571,1.127v-1.624h-2.702v8.023h2.702v-2.945
		c0-2.418,0.736-3.169,2.765-3.034v-2.209C39.187,117.519,39.021,117.503,38.765,117.503 M28.386,119.336
		c0.723,0,1.188,0.465,1.338,1.412h-2.72C27.185,119.756,27.681,119.336,28.386,119.336 M32.548,121.62
		c0-2.074-1.353-4.116-4.025-4.116c-2.674,0-4.283,1.907-4.283,4.251c0,2.827,1.834,4.193,4.132,4.193
		c2.059,0,3.562-1.021,4.028-2.84h-2.66c-0.105,0.617-0.571,1.007-1.337,1.007c-0.768,0-1.353-0.375-1.489-1.714h5.59
		C32.534,122.131,32.548,121.86,32.548,121.62 M24.117,117.713h-2.962l-1.636,5.876l-1.654-5.876h-3.004l3.17,8.023h2.916
		L24.117,117.713z M13.914,117.713h-2.703v8.023h2.703V117.713z M12.563,114.454c-0.843,0-1.396,0.511-1.396,1.32
		c0,0.812,0.554,1.322,1.396,1.322c0.84,0,1.396-0.511,1.396-1.322C13.96,114.964,13.403,114.454,12.563,114.454 M4.522,123.605
		c-0.346,0.029-0.586,0.029-0.979,0.029H2.702v-6.162h0.842c0.393,0,0.633,0,0.979,0.029c1.353,0.12,2.285,1.113,2.285,2.961
		C6.808,122.312,5.875,123.484,4.522,123.605 M5.244,115.43c-0.527-0.061-0.768-0.061-1.322-0.061H0v10.367h3.922
		c0.555,0,0.795,0,1.322-0.06c2.403-0.271,4.386-2.012,4.386-5.259C9.63,117.17,7.647,115.701,5.244,115.43"/>
	<path class="st1" d="M39.088,33.971L19.034,22.394c4.26-7.377,11.537-11.579,20.054-11.579V33.971z"/>
	<path class="st1" d="M39.088,33.971L19.034,45.55c-4.258-7.376-4.258-15.78,0-23.156L39.088,33.971z"/>
	<path class="st1" d="M39.088,33.971v23.157c-8.517,0-15.794-4.202-20.054-11.578L39.088,33.971z"/>
	<path class="st1" d="M39.088,33.971L59.142,45.55c-4.258,7.376-11.535,11.578-20.054,11.578V33.971z"/>
	<path class="st1" d="M39.088,33.971l20.054-11.577c4.259,7.376,4.259,15.779,0,23.156L39.088,33.971z"/>
	<path class="st1" d="M44.546,24.355V1.198c8.518,0,15.794,4.202,20.055,11.579L44.546,24.355z"/>
</g>
</svg>
