<?xml version="1.0" encoding="utf-8"?>
<!-- Generator: Adobe Illustrator 16.0.0, SVG Export Plug-In . SVG Version: 6.00 Build 0)  -->
<!DOCTYPE svg PUBLIC "-//W3C//DTD SVG 1.1//EN" "http://www.w3.org/Graphics/SVG/1.1/DTD/svg11.dtd">
<svg version="1.1" id="Layer_1" xmlns="http://www.w3.org/2000/svg" xmlns:xlink="http://www.w3.org/1999/xlink" x="0px" y="0px"
	 width="51.9px" height="52.7px" viewBox="0 0 51.9 52.7" style="enable-background:new 0 0 51.9 52.7;" xml:space="preserve">
<style type="text/css">
<![CDATA[
	
		.st0{clip-path:url(#SVGID_2_);fill:none;stroke:#0082C6;stroke-width:1.332;stroke-linecap:round;stroke-linejoin:round;stroke-miterlimit:10;}
]]>
</style>
<g>
	<defs>
		<rect id="SVGID_1_" width="51.9" height="52.7"/>
	</defs>
	<clipPath id="SVGID_2_">
		<use xlink:href="#SVGID_1_"  style="overflow:visible;"/>
	</clipPath>
	<path class="st0" d="M46.8,28.3c0.1-1-2.3-1.4-2.5-0.6c-0.3,0.8-0.4,3.7-0.4,3.7 M50.9,26.7c-0.2-1.2-3.4-1.5-3.8,0
		c-0.4,1.5-0.7,9.7-1.1,10.2c-0.4,0.5-4.3,4.2-6,3.7c-1.7-0.5-1.8-1-1.6-1.4c0.2-0.4,5.3-3,5.6-4.2s0.7-3.5-0.1-3.6
		c-0.8-0.1-12.4,8.3-12.8,9.2c-0.4,1-2,8.6-1.7,9.2c0.3,0.6,9.4,2.3,9.6,1.7c0.2-0.6,0.3-4.7,0.8-5.1c0.5-0.3,9.8-6.6,10.2-7.3
		C50.2,38.5,50.9,26.7,50.9,26.7z M5.1,28.3c-0.1-1,2.3-1.4,2.5-0.6C7.8,28.4,8,31.4,8,31.4 M1,26.7c0.2-1.2,3.4-1.5,3.8,0
		c0.4,1.5,0.7,9.7,1.1,10.2c0.4,0.5,4.3,4.2,6,3.7c1.7-0.5,1.8-1,1.6-1.4c-0.2-0.4-5.3-3-5.6-4.2c-0.2-1.2-0.7-3.5,0.1-3.6
		c0.8-0.1,12.4,8.3,12.8,9.2c0.4,1,2,8.6,1.7,9.2c-0.3,0.6-9.4,2.3-9.6,1.7c-0.2-0.6-0.3-4.7-0.8-5.1c-0.5-0.3-9.8-6.6-10.2-7.3
		C1.7,38.5,1,26.7,1,26.7z M26,1v31.3 M10.3,16.7h31.3 M26,32.3c-5.2-2.8-8.9-9.4-8.9-15.7c0-6.2,3.6-12.8,8.9-15.7
		c5.2,2.8,8.9,9.4,8.9,15.7C34.8,22.9,31.2,29.5,26,32.3z M26,32.4c-8.6,0-15.6-7-15.6-15.7C10.3,8,17.3,1,26,1
		c8.6,0,15.6,7,15.6,15.7C41.6,25.3,34.6,32.3,26,32.4z"/>
</g>
</svg>
