<?xml version="1.0" encoding="utf-8"?>
<!-- Generator: Adobe Illustrator 16.0.0, SVG Export Plug-In . SVG Version: 6.00 Build 0)  -->
<!DOCTYPE svg PUBLIC "-//W3C//DTD SVG 1.1//EN" "http://www.w3.org/Graphics/SVG/1.1/DTD/svg11.dtd">
<svg version="1.1" id="Layer_1" xmlns="http://www.w3.org/2000/svg" xmlns:xlink="http://www.w3.org/1999/xlink" x="0px" y="0px"
	 width="51.4px" height="54.8px" viewBox="0 0 51.4 54.8" style="enable-background:new 0 0 51.4 54.8;" xml:space="preserve">
<style type="text/css">
<![CDATA[
	
		.st0{clip-path:url(#SVGID_2_);fill:none;stroke:#0082C6;stroke-width:1.447;stroke-linecap:round;stroke-linejoin:round;stroke-miterlimit:10;}
]]>
</style>
<g>
	<defs>
		<rect id="SVGID_1_" width="51.4" height="54.8"/>
	</defs>
	<clipPath id="SVGID_2_">
		<use xlink:href="#SVGID_1_"  style="overflow:visible;"/>
	</clipPath>
	<path class="st0" d="M27.8,28.5c-3.6,0-6.4-2.9-6.4-6.4 M37.9,21.9c0,5.6-4.5,10.1-10.1,10.1c-5.6,0-10.1-4.5-10.1-10.1
		S27.9,1.1,27.9,1.1S37.9,16.3,37.9,21.9z"/>
	<path class="st0" d="M34.4,37.3l7.6-3c0.4-0.1,0.9-0.1,1.3,0c0.9,0.3,1.6,1.2,1.6,2.2v0.2 M2.5,38.9L14,35c0.5-0.2,1-0.2,1.5-0.1
		l19.7,2.5c0.9,0.1,1.5,0.9,1.4,1.8l-0.1,1.1c-0.1,1-0.9,1.7-1.8,1.7l-10.2,0.2L20.3,42 M24.4,42.1l6.1,3.4l17-10.5
		c0.2-0.1,0.4-0.2,0.7-0.2c0.8,0,1.5,0.6,1.8,1.4l0.2,0.7c0.2,0.9-0.1,1.8-0.9,2.4l-18,13.4c-0.5,0.4-1.1,0.6-1.7,0.8l-0.9,0.2
		c-0.6,0.2-1.2,0.1-1.7,0L9.2,47.7c-0.8-0.3-1.7-0.2-2.5,0.2l-5.7,2.8"/>
</g>
</svg>
