<?xml version="1.0" encoding="utf-8"?>
<!-- Generator: Adobe Illustrator 16.0.0, SVG Export Plug-In . SVG Version: 6.00 Build 0)  -->
<!DOCTYPE svg PUBLIC "-//W3C//DTD SVG 1.1//EN" "http://www.w3.org/Graphics/SVG/1.1/DTD/svg11.dtd">
<svg version="1.1" id="Layer_1" xmlns="http://www.w3.org/2000/svg" xmlns:xlink="http://www.w3.org/1999/xlink" x="0px" y="0px"
	 width="41.8px" height="47.1px" viewBox="0 0 41.8 47.1" style="enable-background:new 0 0 41.8 47.1;" xml:space="preserve">
<style type="text/css">
<![CDATA[
	
		.st0{clip-path:url(#SVGID_4_);fill:none;stroke:#0082C6;stroke-width:1.239;stroke-linecap:round;stroke-linejoin:round;stroke-miterlimit:10;}
	.st1{fill:none;stroke:#0082C6;stroke-width:1.239;stroke-linecap:round;stroke-linejoin:round;stroke-miterlimit:10;}
	
		.st2{clip-path:url(#SVGID_2_);fill:none;stroke:#0082C6;stroke-width:1.239;stroke-linecap:round;stroke-linejoin:round;stroke-miterlimit:10;}
]]>
</style>
<g>
	<defs>
		<rect id="SVGID_1_" width="41.8" height="47.1"/>
	</defs>
	<clipPath id="SVGID_2_">
		<use xlink:href="#SVGID_1_"  style="overflow:visible;"/>
	</clipPath>
	<path class="st2" d="M18.4,2.7c-5,1-8.8,4.7-8.8,9.3"/>
	<rect x="18.6" y="0.9" class="st2" width="4.8" height="11.3"/>
	<path class="st2" d="M32.3,12c0-4.5-3.8-8.3-8.8-9.2"/>
</g>
<line class="st1" x1="14" y1="4.5" x2="18.4" y2="11.7"/>
<line class="st1" x1="28" y1="4.5" x2="23.5" y2="11.7"/>
<g>
	<defs>
		<rect id="SVGID_3_" width="41.8" height="47.1"/>
	</defs>
	<clipPath id="SVGID_4_">
		<use xlink:href="#SVGID_3_"  style="overflow:visible;"/>
	</clipPath>
	<path class="st0" d="M34.1,14.1L34.1,14.1l0.1-1.9H7.8v1.9h0.1c0,0.1-0.1,0.1-0.1,0.2c0,0.8,5.9,2.1,13.2,2.1
		c7.3,0,13.2-1.2,13.2-2.1C34.2,14.2,34.1,14.2,34.1,14.1z"/>
	<polyline class="st0" points="17.5,28.3 17.5,32.8 0.9,37.3 0.9,46.2 40.9,46.2 40.9,37.3 24.8,32.6 24.8,28.4 	"/>
	<path class="st0" d="M30.8,16.1c0,5.3-4.3,13.6-9.5,13.6c-5.3,0-9.5-8.4-9.5-13.6"/>
</g>
</svg>
