<?xml version="1.0" encoding="utf-8"?>
<!-- Generator: Adobe Illustrator 16.0.0, SVG Export Plug-In . SVG Version: 6.00 Build 0)  -->
<!DOCTYPE svg PUBLIC "-//W3C//DTD SVG 1.1//EN" "http://www.w3.org/Graphics/SVG/1.1/DTD/svg11.dtd">
<svg version="1.1" id="Layer_1" xmlns="http://www.w3.org/2000/svg" xmlns:xlink="http://www.w3.org/1999/xlink" x="0px" y="0px"
	 width="50.5px" height="50.5px" viewBox="0 0 50.5 50.5" style="enable-background:new 0 0 50.5 50.5;" xml:space="preserve">
<style type="text/css">
<![CDATA[
	
		.st0{clip-path:url(#SVGID_2_);fill:none;stroke:#0082C6;stroke-width:1.335;stroke-linecap:round;stroke-linejoin:round;stroke-miterlimit:10;}
]]>
</style>
<g>
	<defs>
		<rect id="SVGID_1_" width="50.5" height="50.5"/>
	</defs>
	<clipPath id="SVGID_2_">
		<use xlink:href="#SVGID_1_"  style="overflow:visible;"/>
	</clipPath>
	<path class="st0" d="M31.6,45.7c1-1,1.6-2.4,1.6-3.9c0-1.5-0.6-2.9-1.6-3.9 M39.6,45.7c-1-1-1.6-2.4-1.6-3.9c0-1.5,0.6-2.9,1.6-3.9
		 M35.6,36.3c3.1,0,5.6,2.5,5.6,5.5s-2.5,5.5-5.6,5.5c-3.1,0-5.5-2.5-5.5-5.5S32.5,36.3,35.6,36.3z M34.3,29.5L21,16.2 M38.8,27.9
		L22.7,11.7 M42.3,25.2l-17-17 M45,21.7L28.8,5.5 M46.6,17.2L33.4,3.9 M46.8,16.1L33.2,29.6 M46.1,10.6L27.8,28.9 M43.7,6.9L24,26.5
		 M39.9,4.5L21.6,22.7 M34.4,3.8L20.9,17.3 M12.2,35.2l3.1,3.1 M15.5,31.8l3.2,3.2 M18.1,20.1c0,0-1.1,10.3-2.9,12.1L3,44.4l-2,0.4
		l4.8,4.8l0.4-2l12.2-12.2c1.8-1.8,12.1-2.9,12.1-2.9 M22,28.6c-5.7-5.7-5-15.6,1.6-22.1C30.1-0.1,40-0.8,45.7,4.8
		c5.7,5.7,5,15.6-1.6,22.1C37.6,33.5,27.6,34.2,22,28.6z M24,26.5c-4.7-4.7-4.1-12.9,1.3-18.3c5.4-5.4,13.6-6,18.3-1.3
		s4.1,12.9-1.3,18.3C36.9,30.6,28.7,31.2,24,26.5z"/>
</g>
</svg>
